<svg width="65" height="50" viewBox="0 0 65 50" fill="none" xmlns="http://www.w3.org/2000/svg">
<path fill-rule="evenodd" clip-rule="evenodd" d="M10.9264 42.7548C10.9264 38.7376 14.2141 35.5094 18.3054 35.5094C22.3237 35.5094 25.6844 38.7376 25.6844 42.7548C25.6844 46.772 22.3967 50.0001 18.3054 50.0001C14.2141 50.0001 10.9264 46.772 10.9264 42.7548ZM15.0908 42.7548C15.0908 44.4764 16.552 45.9112 18.3054 45.9112C20.0588 45.9112 21.4469 44.4764 21.52 42.7548C21.52 41.0331 20.0588 39.5984 18.3054 39.5984C16.4789 39.5984 15.0908 41.0331 15.0908 42.7548Z" fill="url(#paint0_linear_101_3492)"/>
<path fill-rule="evenodd" clip-rule="evenodd" d="M38.9812 42.7548C38.9812 38.7376 42.2689 35.5094 46.3602 35.5094C50.4515 35.5094 53.7392 38.7376 53.7392 42.7548C53.7392 46.772 50.4515 50.0001 46.3602 50.0001C42.2689 50.0001 38.9812 46.772 38.9812 42.7548ZM43.1456 42.7548C43.1456 44.4764 44.6068 45.9112 46.3602 45.9112C48.1136 45.9112 49.5748 44.4764 49.5748 42.7548C49.5748 41.0331 48.1136 39.5984 46.3602 39.5984C44.5337 39.5984 43.1456 41.0331 43.1456 42.7548Z" fill="url(#paint1_linear_101_3492)"/>
<path fill-rule="evenodd" clip-rule="evenodd" d="M2.52455 15.9973C1.35559 14.3473 0.625 12.3387 0.625 10.1866C0.625 4.59123 5.22774 0.0718582 10.9994 0.00012207C13.9949 0.00012207 16.6981 1.29137 18.5976 3.37171C20.2049 5.16511 21.2278 7.5324 21.2278 10.1149C21.2278 15.7103 16.552 20.2297 10.9264 20.2297C7.41953 20.2297 4.35103 18.5797 2.52455 15.9973ZM10.9264 3.9456C10.3419 3.9456 9.90355 4.44775 9.90355 4.94991H9.97661V10.904C9.97661 11.0475 10.0497 11.1192 10.1958 11.1192H14.2871C14.8716 11.1192 15.3099 10.6888 15.3099 10.1149C15.3099 9.54101 14.8716 9.11059 14.2871 9.11059H12.1684C12.0223 9.11059 11.9492 9.03886 11.9492 8.89539V4.94991C11.9492 4.37602 11.5109 3.9456 10.9264 3.9456Z" fill="url(#paint2_linear_101_3492)"/>
<path fill-rule="evenodd" clip-rule="evenodd" d="M52.278 10.1867C53.1547 10.1867 54.0314 10.6171 54.5428 11.3345L64.1136 24.9643C64.4789 25.4665 64.625 25.9686 64.625 26.5425V40.0289C64.625 41.5353 63.383 42.7548 61.8487 42.7548H56.8807C56.4423 42.7548 56.1501 42.4679 56.1501 42.1092C55.7848 37.0877 51.5474 33.1422 46.3601 33.1422C41.1729 33.1422 36.9355 37.0877 36.5702 42.1092C36.4971 42.4679 36.2049 42.7548 35.8396 42.7548H28.8259C28.3875 42.7548 28.0953 42.4679 28.0953 42.1092C27.73 37.0877 23.4925 33.1422 18.3053 33.1422C13.1181 33.1422 8.88065 37.0877 8.51535 42.1092C8.44229 42.4679 8.15005 42.7548 7.78476 42.7548H5.44686C3.83955 42.7548 2.52448 41.4636 2.52448 39.8854V21.3775C2.52448 20.8754 3.03589 20.5884 3.47425 20.8754C6.03133 22.6688 9.319 23.5296 12.7528 23.0274C18.5976 22.1666 23.2734 17.5755 24.004 11.8366C24.3692 9.11066 23.8578 6.45643 22.6889 4.23261C22.4697 3.80219 22.7619 3.37178 23.2003 3.37178H34.1592C35.7665 3.37178 37.0816 4.66303 37.0816 6.24122V9.25413C37.0816 9.75628 37.5199 10.1867 38.0314 10.1867H52.278ZM56.9538 28.049C57.3921 28.049 57.8305 27.6903 57.8305 27.1881V24.3904C57.8305 24.247 57.8305 24.0317 57.6844 23.8883L51.5474 15.7104C51.4012 15.4952 51.109 15.3517 50.8168 15.3517H42.6341C42.1227 15.3517 41.7574 15.7104 41.7574 16.2125V27.1881C41.7574 27.6903 42.1227 28.049 42.6341 28.049H56.9538Z" fill="url(#paint3_linear_101_3492)"/>
<defs>
<linearGradient id="paint0_linear_101_3492" x1="32.7551" y1="49.8924" x2="32.7551" y2="-0.187234" gradientUnits="userSpaceOnUse">
<stop stop-color="#9CE10A"/>
<stop offset="1" stop-color="#5EC50D"/>
</linearGradient>
<linearGradient id="paint1_linear_101_3492" x1="32.7551" y1="49.8924" x2="32.7551" y2="-0.187234" gradientUnits="userSpaceOnUse">
<stop stop-color="#9CE10A"/>
<stop offset="1" stop-color="#5EC50D"/>
</linearGradient>
<linearGradient id="paint2_linear_101_3492" x1="32.7551" y1="49.8924" x2="32.7551" y2="-0.187234" gradientUnits="userSpaceOnUse">
<stop stop-color="#9CE10A"/>
<stop offset="1" stop-color="#5EC50D"/>
</linearGradient>
<linearGradient id="paint3_linear_101_3492" x1="32.7551" y1="49.8924" x2="32.7551" y2="-0.187234" gradientUnits="userSpaceOnUse">
<stop stop-color="#9CE10A"/>
<stop offset="1" stop-color="#5EC50D"/>
</linearGradient>
</defs>
</svg>
