<svg width="65" height="64" viewBox="0 0 65 64" fill="none" xmlns="http://www.w3.org/2000/svg">
<g clip-path="url(#clip0_101_3467)">
<path d="M8.19388 33.6231C7.35814 34.4236 6.93587 35.4089 6.93587 36.5613V52.2996C6.93587 52.4404 6.98866 52.5723 7.10302 52.6691C7.20859 52.7659 7.33175 52.8099 7.4813 52.7923C7.8068 52.7659 8.1323 52.7483 8.4666 52.7483C11.6864 52.7483 14.6863 54.1382 16.7624 56.4783C16.868 56.6015 17.0087 56.6543 17.1759 56.6455C17.343 56.6367 17.519 56.6279 17.6861 56.6279C19.8326 56.6279 21.768 57.5692 23.0876 59.0559C23.2284 59.2143 23.4395 59.267 23.6419 59.1879C23.8354 59.1175 23.9586 58.9328 23.9586 58.7216V44.7428C23.9586 43.3616 25.0934 42.2356 26.4746 42.2356H37.9638C39.3449 42.2356 40.4798 43.3616 40.4798 44.7428V58.8008C40.4798 59.0119 40.603 59.1879 40.8053 59.267C40.9988 59.3374 41.2188 59.2846 41.3595 59.1263C42.6791 57.5956 44.6321 56.6279 46.8138 56.6279C46.9898 56.6279 47.1569 56.6367 47.3328 56.6455C47.4912 56.6543 47.632 56.6015 47.7375 56.4783C49.8137 54.1382 52.8223 52.7483 56.0333 52.7483C56.35 52.7483 56.6579 52.7659 56.957 52.7923C57.1066 52.8011 57.2298 52.7571 57.3441 52.6603C57.4497 52.5635 57.5025 52.4404 57.5025 52.2908V36.5613C57.5025 35.4089 57.0802 34.4236 56.2445 33.6231L33.6179 12.061C32.835 11.3132 31.6034 11.3132 30.8204 12.061L8.19388 33.6231ZM17.6861 59.4958C17.1319 59.4958 16.6041 59.6013 16.1114 59.7949C15.8827 59.8829 15.6276 59.7949 15.5044 59.5925C14.0616 57.2085 11.4489 55.625 8.4666 55.625C4.05038 55.625 0.452301 59.1087 0.258762 63.4809C0.249964 63.6217 0.302748 63.7448 0.399518 63.8504C0.496287 63.9472 0.619449 64 0.760205 64H21.5129C21.6625 64 21.7856 63.9472 21.8824 63.8416C21.988 63.736 22.032 63.6041 22.0144 63.4545C21.8208 61.2376 19.9558 59.4958 17.6861 59.4958ZM46.8138 59.4958C47.5264 59.4958 48.195 59.6717 48.7844 59.9708C50.1656 57.3844 52.8927 55.625 56.0333 55.625C60.4495 55.625 64.0564 59.1087 64.2412 63.4809C64.25 63.6217 64.206 63.7448 64.1092 63.8504C64.0124 63.9472 63.8893 64 63.7485 64H42.987C42.8375 64 42.7143 63.9472 42.6175 63.8416C42.5208 63.736 42.4768 63.6041 42.4856 63.4545C42.6791 61.2376 44.5441 59.4958 46.8138 59.4958ZM5.87141 32.4266C2.35251 35.101 -1.4567 30.8079 1.7367 27.7377L29.448 1.11722C30.231 0.360658 31.2427 -0.00882693 32.2544 -2.96789e-05C33.2572 -0.00882693 34.2689 0.360658 35.0519 1.11722L62.772 27.7377C65.9654 30.8079 62.1474 35.101 58.6285 32.4266L33.6355 8.44533C32.8614 7.69756 31.6386 7.69756 30.8644 8.44533L5.87141 32.4266ZM32.2544 26.9811C33.6443 26.9811 34.9815 27.2539 36.2043 27.7377C36.4858 27.8521 36.6882 28.072 36.7849 28.3711C36.8729 28.6614 36.8377 28.9605 36.6618 29.2156L34.4273 32.585C34.1898 32.9369 33.7763 33.104 33.3628 32.9985C33.0109 32.9193 32.6326 32.8753 32.2544 32.8753C31.8673 32.8753 31.4978 32.9193 31.1371 32.9985C30.7236 33.104 30.3102 32.9369 30.0726 32.585L27.8381 29.2156C27.671 28.9605 27.627 28.6614 27.7238 28.3711C27.8117 28.072 28.0141 27.8521 28.3044 27.7377C29.5272 27.2539 30.8556 26.9811 32.2544 26.9811ZM39.864 30.1833C41.2012 31.5469 42.1777 33.2624 42.6263 35.1802C42.7759 35.796 42.6439 36.3854 42.248 36.8868C41.861 37.3795 41.3155 37.6434 40.6821 37.6434H37.0225C37.0225 36.5965 36.6794 35.6288 36.1076 34.8371C35.8612 34.494 35.8524 34.0541 36.0812 33.6934L38.3245 30.3329C38.4916 30.069 38.7467 29.9194 39.0634 29.8842C39.3713 29.8578 39.6528 29.9634 39.864 30.1833ZM35.0255 37.6434H29.4832C29.4832 36.878 29.7911 36.1831 30.2926 35.6816C30.794 35.1802 31.489 34.8723 32.2544 34.8723C33.0197 34.8723 33.7059 35.1802 34.2074 35.6816C34.7088 36.1831 35.0255 36.878 35.0255 37.6434ZM27.4775 37.6434H23.8266C23.1932 37.6434 22.6478 37.3795 22.2519 36.8868C21.8648 36.3854 21.7328 35.796 21.8736 35.1802C22.3311 33.2624 23.2988 31.5469 24.6359 30.1833C24.8559 29.9634 25.1374 29.8578 25.4453 29.8842C25.7532 29.9194 26.0083 30.069 26.1843 30.3329L28.4188 33.6934C28.6563 34.0541 28.6475 34.494 28.3924 34.8371C27.8205 35.6288 27.4775 36.5965 27.4775 37.6434Z" fill="url(#paint0_linear_101_3467)"/>
</g>
<defs>
<linearGradient id="paint0_linear_101_3467" x1="32.3801" y1="63.8621" x2="32.3801" y2="-0.239999" gradientUnits="userSpaceOnUse">
<stop stop-color="#9CE10A"/>
<stop offset="1" stop-color="#5EC50D"/>
</linearGradient>
<clipPath id="clip0_101_3467">
<rect width="64" height="64" fill="white" transform="translate(0.25)"/>
</clipPath>
</defs>
</svg>
