<svg width="49" height="57" viewBox="0 0 49 57" fill="none" xmlns="http://www.w3.org/2000/svg">
<path fill-rule="evenodd" clip-rule="evenodd" d="M48.75 42.4239V9.41588C48.75 8.23188 48.226 7.10984 47.318 6.34984C46.422 5.59984 45.244 5.27985 44.092 5.47185C39.092 6.16785 33.25 4.75588 28.244 1.21788C26.158 -0.292121 23.336 -0.286144 21.256 1.23186C16.274 4.77786 10.468 6.25187 5.478 5.54387C4.294 5.33587 3.116 5.64588 2.218 6.38988C1.308 7.14388 0.779999 8.26586 0.779999 9.44786C0.75 16.2636 0.75 35.4492 0.75 42.4239C0.75 44.7779 2.12601 46.9118 4.26801 47.8858C7.79497 49.4893 14.5411 52.5557 19.136 54.6442L22.268 56.0679C23.844 56.7859 25.656 56.7859 27.232 56.0679L30.6219 54.527C35.208 52.4424 41.7704 49.4596 45.232 47.8858C47.374 46.9118 48.75 44.7779 48.75 42.4239ZM15.336 28.4139L21.63 34.7079C22.41 35.4879 23.676 35.4879 24.458 34.7079L36.246 22.9198C37.026 22.1398 37.026 20.8718 36.246 20.0918C35.464 19.3098 34.198 19.3098 33.418 20.0918L23.044 30.4638L18.164 25.5859C17.384 24.8059 16.116 24.8059 15.336 25.5859C14.556 26.3659 14.556 27.6339 15.336 28.4139ZM28.2913 5.81442C26.1749 4.29647 23.3148 4.30257 21.2048 5.8284C20.6319 6.24264 20.5034 7.04283 20.9176 7.61567C21.3319 8.18851 22.132 8.31708 22.7049 7.90284C23.9229 7.02209 25.578 7.01871 26.7992 7.89466C27.3737 8.30668 28.1733 8.17501 28.5854 7.60057C28.9974 7.02613 28.8657 6.22644 28.2913 5.81442ZM43.6216 9.93732C42.6177 9.10469 41.3006 8.75139 40.0151 8.96369C39.3176 9.07887 38.8456 9.73766 38.9607 10.4351C39.0759 11.1326 39.7347 11.6047 40.4322 11.4895C40.9898 11.3974 41.5576 11.5514 41.9873 11.9078C42.4223 12.2686 42.67 12.7977 42.67 13.3529C42.67 14.0599 43.2431 14.6329 43.95 14.6329C44.657 14.6329 45.23 14.0599 45.23 13.3529C45.23 12.0311 44.6393 10.7814 43.6216 9.93732ZM5.55004 38.2378C6.25696 38.2378 6.83004 38.8109 6.83004 39.5178C6.83004 40.8746 7.63048 42.1128 8.89025 42.6804C9.53477 42.9708 9.82185 43.7287 9.53146 44.3732C9.24106 45.0177 8.48316 45.3048 7.83863 45.0144C5.6712 44.0379 4.27004 41.8929 4.27004 39.5178C4.27004 38.8109 4.84311 38.2378 5.55004 38.2378ZM45.23 39.5178C45.23 38.8109 44.657 38.2378 43.95 38.2378C43.2431 38.2378 42.67 38.8109 42.67 39.5178C42.67 40.8746 41.8696 42.1128 40.6098 42.6804C39.9653 42.9708 39.6782 43.7287 39.9686 44.3732C40.259 45.0177 41.0169 45.3048 41.6614 45.0144C43.8289 44.0379 45.23 41.8929 45.23 39.5178ZM21.5978 49.8065C21.8887 49.1622 22.6468 48.8756 23.2911 49.1665C24.2171 49.5845 25.283 49.5845 26.209 49.1665C26.8533 48.8756 27.6114 49.1622 27.9023 49.8065C28.1931 50.4508 27.9066 51.2089 27.2623 51.4998C25.6666 52.2201 23.8334 52.2201 22.2378 51.4998C21.5935 51.2089 21.3069 50.4508 21.5978 49.8065ZM5.87846 9.9374C6.88236 9.10477 8.19941 8.75147 9.48496 8.96376C10.1824 9.07895 10.6545 9.73774 10.5393 10.4352C10.4241 11.1327 9.76532 11.6047 9.06784 11.4896C8.5102 11.3975 7.94242 11.5515 7.51272 11.9079C7.0777 12.2687 6.83 12.7978 6.83 13.353C6.83 14.0599 6.25692 14.633 5.55 14.633C4.84308 14.633 4.27 14.0599 4.27 13.353C4.27 12.0312 4.86069 10.7815 5.87846 9.9374ZM4.27 23.88C4.27 23.1731 4.84307 22.6 5.55 22.6C6.25693 22.6 6.83 23.1731 6.83 23.88V30.28C6.83 30.9869 6.25693 31.56 5.55 31.56C4.84307 31.56 4.27 30.9869 4.27 30.28V23.88ZM42.67 23.88C42.67 23.1731 43.2431 22.6 43.95 22.6C44.6569 22.6 45.23 23.1731 45.23 23.88V30.28C45.23 30.9869 44.6569 31.56 43.95 31.56C43.2431 31.56 42.67 30.9869 42.67 30.28V23.88Z" fill="url(#paint0_linear_101_3474)"/>
<defs>
<linearGradient id="paint0_linear_101_3474" x1="24.8475" y1="56.4846" x2="24.8475" y2="-0.12242" gradientUnits="userSpaceOnUse">
<stop stop-color="#9CE10A"/>
<stop offset="1" stop-color="#5EC50D"/>
</linearGradient>
</defs>
</svg>
