<svg width="54" height="48" viewBox="0 0 54 48" fill="none" xmlns="http://www.w3.org/2000/svg">
<path d="M39.2912 0C48.4882 0 53.9163 5.29225 53.9163 14.3515H42.6334V14.4439C37.3969 14.4439 33.1519 18.5826 33.1519 23.688C33.1519 28.7934 37.3969 32.9321 42.6334 32.9321H53.9163V33.7641C53.9163 42.7078 48.4882 48 39.2912 48H15.2082C6.01116 48 0.583008 42.7078 0.583008 33.7641V14.2359C0.583008 5.29225 6.01116 0 15.2082 0H39.2912ZM51.9252 18.3264C53.0249 18.3264 53.9163 19.1956 53.9163 20.2677V27.0159C53.9035 28.0828 53.0195 28.9447 51.9252 28.9572H42.8467C40.1958 28.9919 37.8776 27.2223 37.2763 24.7049C36.9752 23.1421 37.3979 21.5295 38.4312 20.2992C39.4644 19.069 41.0026 18.3469 42.6334 18.3264H51.9252ZM43.9134 21.4463H43.0363C42.4979 21.4401 41.9793 21.6444 41.5963 22.0134C41.2133 22.3825 40.9978 22.8857 40.9978 23.4107C40.9977 24.5121 41.9067 25.4086 43.0363 25.4213H43.9134C45.0392 25.4213 45.9519 24.5315 45.9519 23.4338C45.9519 22.3361 45.0392 21.4463 43.9134 21.4463ZM28.2689 10.3765H13.2171C12.1004 10.3764 11.1915 11.2523 11.1786 12.3409C11.1786 13.4423 12.0874 14.3388 13.2171 14.3515H28.2689C29.3948 14.3515 30.3074 13.4616 30.3074 12.364C30.3074 11.2663 29.3948 10.3765 28.2689 10.3765Z" fill="url(#paint0_linear_101_3480)"/>
<defs>
<linearGradient id="paint0_linear_101_3480" x1="27.3581" y1="47.8966" x2="27.3581" y2="-0.179862" gradientUnits="userSpaceOnUse">
<stop stop-color="#9CE10A"/>
<stop offset="1" stop-color="#5EC50D"/>
</linearGradient>
</defs>
</svg>
