<svg width="102" height="80" viewBox="0 0 102 80" fill="none" xmlns="http://www.w3.org/2000/svg">
<path d="M19.3424 63.9048C23.0891 62.7337 25.9409 59.5034 26.5403 55.5641C23.3528 58.763 21.0275 61.593 19.3424 63.9048Z" fill="#252122"/>
<path d="M26.6569 42.5071C21.9891 45.6707 18.6284 48.4198 16.2388 50.375L16.2388 17.762C19.4293 17.762 22.2943 19.1863 24.1826 21.3876L37.8674 35.722C34.3896 37.6017 31.3416 39.4362 28.6735 41.1691L26.6569 39.0625V42.5071Z" fill="#252122"/>
<path d="M35.1286 47.9125L47.2328 60.5572C49.121 62.888 52.0511 64.3771 55.3068 64.3771V34.5056C51.4879 36.6489 48.0261 38.7678 44.8887 40.8405V43.0766L43.5854 41.7114C40.437 43.8392 37.6301 45.9143 35.1286 47.9125Z" fill="#252122"/>
<path d="M44.8887 32.1658C48.067 30.6575 51.5316 29.143 55.3068 27.65V17.762C49.5768 17.762 44.8887 22.4235 44.8887 28.1209V32.1658Z" fill="#252122"/>
<path d="M57.363 33.3682V64.3771H84.8363C90.648 64.3771 95.403 59.7156 95.403 54.0182H67.9297V27.9951C64.1464 29.7918 60.6303 31.587 57.363 33.3682Z" fill="#252122"/>
<path d="M67.9297 23.1533C64.2035 24.3456 60.714 25.5729 57.4467 26.8189C58.105 21.7301 62.5676 17.762 67.9297 17.762V23.1533Z" fill="#252122"/>
<path d="M15.2239 51.2032C8.11945 56.9668 9.47268 63.7015 10.6568 66.4039C14.7165 58.2968 37.0448 31.9491 102 13.7085C47.1941 23.8422 23.3433 44.6163 15.2239 51.2032Z" fill="url(#paint0_linear_135_77)"/>
<path d="M7.10447 52.2166L7.34957 54.135C7.40809 54.5929 7.76923 54.9535 8.22791 55.0119L10.1492 55.2567L8.22791 55.5014C7.76923 55.5598 7.40809 55.9204 7.34957 56.3784L7.10447 58.2968L6.85936 56.3784C6.80085 55.9204 6.43971 55.5598 5.98103 55.5014L4.05969 55.2567L5.98103 55.0119C6.43971 54.9535 6.80085 54.5929 6.85936 54.135L7.10447 52.2166Z" fill="#252122"/>
<path d="M1.67103 57.0894L1.80555 58.1422C1.83766 58.3936 2.03586 58.5914 2.28759 58.6235L3.34206 58.7578L2.28759 58.8921C2.03586 58.9242 1.83766 59.1221 1.80555 59.3734L1.67103 60.4263L1.53651 59.3734C1.5044 59.1221 1.30619 58.9242 1.05446 58.8921L0 58.7578L1.05446 58.6235C1.30619 58.5914 1.5044 58.3936 1.53651 58.1422L1.67103 57.0894Z" fill="#252122"/>
<path d="M4.52337 59.7969L4.83084 62.2034C4.88935 62.6614 5.2505 63.022 5.70917 63.0804L8.11938 63.3874L5.70917 63.6944C5.2505 63.7528 4.88935 64.1134 4.83084 64.5714L4.52337 66.9779L4.2159 64.5714C4.15739 64.1134 3.79624 63.7528 3.33757 63.6944L0.927368 63.3874L3.33757 63.0804C3.79625 63.022 4.15739 62.6614 4.2159 62.2034L4.52337 59.7969Z" fill="#252122"/>
<path d="M87.664 0L87.9715 2.40651C88.03 2.86449 88.3911 3.22508 88.8498 3.2835L91.26 3.5905L88.8498 3.8975C88.3911 3.95592 88.03 4.31651 87.9715 4.77449L87.664 7.181L87.3565 4.77449C87.298 4.31651 86.9369 3.95592 86.4782 3.8975L84.068 3.5905L86.4782 3.2835C86.9369 3.22508 87.298 2.86449 87.3565 2.40651L87.664 0Z" fill="#252122"/>
<path d="M91.825 8.7749L92.064 10.6452C92.1094 11.0011 92.3901 11.2814 92.7466 11.3268L94.6197 11.5654L92.7466 11.8039C92.3901 11.8494 92.1094 12.1296 92.064 12.4855L91.825 14.3558L91.586 12.4855C91.5406 12.1296 91.2599 11.8494 90.9034 11.8039L89.0303 11.5654L90.9034 11.3268C91.2599 11.2814 91.5406 11.0011 91.586 10.6452L91.825 8.7749Z" fill="#252122"/>
<path d="M82.6661 8.7749L82.905 10.6452C82.9505 11.0011 83.2312 11.2814 83.5876 11.3268L85.4608 11.5654L83.5876 11.8039C83.2312 11.8494 82.9505 12.1296 82.905 12.4855L82.6661 14.3558L82.4271 12.4855C82.3816 12.1296 82.101 11.8494 81.7445 11.8039L79.8713 11.5654L81.7445 11.3268C82.101 11.2814 82.3816 11.0011 82.4271 10.6452L82.6661 8.7749Z" fill="#252122"/>
<path d="M6.37012 73.075H9.09306L12.6464 76.8392V73.075H15.3951V79.8794H12.6464L9.11237 76.143V79.8794H6.37012V73.075Z" fill="url(#paint1_linear_135_77)"/>
<path d="M27.6245 78.7562H24.3029L23.8458 79.8794H20.8654L24.4123 73.075H27.5923L31.1392 79.8794H28.088L27.6245 78.7562ZM27.013 77.2848L25.9701 74.8387L24.9337 77.2848H27.013Z" fill="url(#paint2_linear_135_77)"/>
<path d="M35.1161 73.075H43.9802V74.7552H41.0062V79.8794H38.0901V74.7552H35.1161V73.075Z" fill="url(#paint3_linear_135_77)"/>
<path d="M56.0615 73.075H58.9711V77.1316C58.9711 77.5339 58.8831 77.9145 58.7072 78.2734C58.5355 78.6293 58.263 78.9418 57.8897 79.211C57.5206 79.4771 57.1322 79.6643 56.7245 79.7726C56.1581 79.9243 55.4779 80.0001 54.6839 80.0001C54.2248 80.0001 53.7227 79.9769 53.1776 79.9305C52.6369 79.884 52.1842 79.7928 51.8194 79.6566C51.4546 79.5174 51.1199 79.3209 50.8152 79.0671C50.5148 78.8134 50.3088 78.5519 50.1972 78.2827C50.017 77.8495 49.9268 77.4658 49.9268 77.1316V73.075H52.8365V77.2291C52.8365 77.6004 52.9781 77.8913 53.2613 78.1017C53.5489 78.309 53.9458 78.4127 54.4522 78.4127C54.9543 78.4127 55.347 78.3106 55.6302 78.1063C55.9177 77.899 56.0615 77.6066 56.0615 77.2291V73.075Z" fill="url(#paint4_linear_135_77)"/>
<path d="M65.5551 79.8794V73.075H70.4152C71.3164 73.075 72.0052 73.1306 72.4815 73.242C72.9579 73.3534 73.342 73.5608 73.6338 73.864C73.9256 74.1642 74.0715 74.5308 74.0715 74.964C74.0715 75.3416 73.9599 75.668 73.7368 75.9434C73.5136 76.2157 73.2068 76.4369 72.8163 76.6071C72.5674 76.7154 72.2262 76.8052 71.7928 76.8763C72.1404 76.9599 72.3936 77.0434 72.5523 77.127C72.6596 77.1827 72.8141 77.3018 73.0158 77.4844C73.2218 77.6669 73.3591 77.8077 73.4278 77.9068L74.8376 79.8794H71.5417L69.9839 77.8C69.7865 77.5308 69.6105 77.356 69.4561 77.2755C69.2458 77.1703 69.0076 77.1177 68.7415 77.1177H68.484V79.8794H65.5551ZM68.484 75.832H69.7135C69.8466 75.832 70.1041 75.8011 70.486 75.7392C70.6791 75.7113 70.8358 75.6402 70.9559 75.5257C71.0804 75.4112 71.1426 75.2797 71.1426 75.1311C71.1426 74.9114 71.046 74.7428 70.8529 74.6252C70.6598 74.5076 70.2972 74.4488 69.765 74.4488H68.484V75.832Z" fill="url(#paint5_linear_135_77)"/>
<path d="M80.3851 73.075H88.1999V74.5277H83.3076V75.6092H87.8459V76.997H83.3076V78.3384H88.3415V79.8794H80.3851V73.075Z" fill="url(#paint6_linear_135_77)"/>
<path d="M94.5328 73.075H97.4489V78.2038H102V79.8794H94.5328V73.075Z" fill="url(#paint7_linear_135_77)"/>
<defs>
<linearGradient id="paint0_linear_135_77" x1="11.0166" y1="66.4039" x2="101.932" y2="14.7965" gradientUnits="userSpaceOnUse">
<stop stop-color="#682D91"/>
<stop offset="0.302375" stop-color="#E80088"/>
<stop offset="0.50753" stop-color="#835AB2"/>
<stop offset="0.709479" stop-color="#EA048A"/>
<stop offset="0.945377" stop-color="#682D91"/>
</linearGradient>
<linearGradient id="paint1_linear_135_77" x1="6.37012" y1="76.5375" x2="14.2683" y2="50.2142" gradientUnits="userSpaceOnUse">
<stop stop-color="#682D91"/>
<stop offset="0.507401" stop-color="#EA048A"/>
<stop offset="1" stop-color="#682D91"/>
</linearGradient>
<linearGradient id="paint2_linear_135_77" x1="6.37012" y1="76.5375" x2="14.2683" y2="50.2142" gradientUnits="userSpaceOnUse">
<stop stop-color="#682D91"/>
<stop offset="0.507401" stop-color="#EA048A"/>
<stop offset="1" stop-color="#682D91"/>
</linearGradient>
<linearGradient id="paint3_linear_135_77" x1="6.37012" y1="76.5375" x2="14.2683" y2="50.2142" gradientUnits="userSpaceOnUse">
<stop stop-color="#682D91"/>
<stop offset="0.507401" stop-color="#EA048A"/>
<stop offset="1" stop-color="#682D91"/>
</linearGradient>
<linearGradient id="paint4_linear_135_77" x1="6.37012" y1="76.5375" x2="14.2683" y2="50.2142" gradientUnits="userSpaceOnUse">
<stop stop-color="#682D91"/>
<stop offset="0.507401" stop-color="#EA048A"/>
<stop offset="1" stop-color="#682D91"/>
</linearGradient>
<linearGradient id="paint5_linear_135_77" x1="6.37012" y1="76.5375" x2="14.2683" y2="50.2142" gradientUnits="userSpaceOnUse">
<stop stop-color="#682D91"/>
<stop offset="0.507401" stop-color="#EA048A"/>
<stop offset="1" stop-color="#682D91"/>
</linearGradient>
<linearGradient id="paint6_linear_135_77" x1="6.37012" y1="76.5375" x2="14.2683" y2="50.2142" gradientUnits="userSpaceOnUse">
<stop stop-color="#682D91"/>
<stop offset="0.507401" stop-color="#EA048A"/>
<stop offset="1" stop-color="#682D91"/>
</linearGradient>
<linearGradient id="paint7_linear_135_77" x1="6.37012" y1="76.5375" x2="14.2683" y2="50.2142" gradientUnits="userSpaceOnUse">
<stop stop-color="#682D91"/>
<stop offset="0.507401" stop-color="#EA048A"/>
<stop offset="1" stop-color="#682D91"/>
</linearGradient>
</defs>
</svg>
