<svg width="223" height="174" viewBox="0 0 223 174" fill="none" xmlns="http://www.w3.org/2000/svg">
<path d="M42.2879 138.993C50.4791 136.445 56.714 129.42 58.0244 120.852C51.0556 127.809 45.9718 133.965 42.2879 138.993Z" fill="white"/>
<path d="M58.2794 92.4527C48.0743 99.3336 40.7267 105.313 35.5024 109.565L35.5024 38.6321C42.4779 38.6321 48.7415 41.73 52.8698 46.5178L82.7885 77.6951C75.1851 81.7834 68.5214 85.7735 62.6881 89.5426L58.2794 84.9607V92.4527Z" fill="white"/>
<path d="M76.8009 104.21L103.264 131.712C107.392 136.781 113.798 140.02 120.916 140.02V75.0494C112.567 79.7111 104.998 84.3198 98.139 88.828V93.6913L95.2896 90.7221C88.4064 95.35 82.2698 99.8634 76.8009 104.21Z" fill="white"/>
<path d="M98.139 69.9604C105.088 66.6799 112.662 63.3859 120.916 60.1385V38.6321C108.389 38.6321 98.139 48.7709 98.139 61.1627V69.9604Z" fill="white"/>
<path d="M125.411 72.5757V140.02H185.475C198.181 140.02 208.577 129.881 208.577 117.489H148.513V60.8891C140.242 64.797 132.555 68.7016 125.411 72.5757Z" fill="white"/>
<path d="M148.513 50.3583C140.367 52.9514 132.738 55.6208 125.594 58.3309C127.034 47.2629 136.79 38.6321 148.513 38.6321V50.3583Z" fill="white"/>
<path d="M33.2836 111.367C17.7512 123.903 20.7098 138.551 23.2985 144.428C32.1741 126.795 80.99 69.4892 223 29.8158C103.179 51.8565 51.0348 97.0402 33.2836 111.367Z" fill="white"/>
<path d="M15.5323 113.571L16.0682 117.743C16.1961 118.74 16.9857 119.524 17.9885 119.651L22.189 120.183L17.9885 120.715C16.9857 120.843 16.1961 121.627 16.0682 122.623L15.5323 126.795L14.9965 122.623C14.8685 121.627 14.079 120.843 13.0762 120.715L8.87561 120.183L13.0762 119.651C14.079 119.524 14.8685 118.74 14.9965 117.743L15.5323 113.571Z" fill="white"/>
<path d="M3.65333 124.169L3.94742 126.459C4.01763 127.006 4.45095 127.436 5.0013 127.506L7.30665 127.798L5.0013 128.09C4.45095 128.16 4.01763 128.591 3.94742 129.137L3.65333 131.427L3.35923 129.137C3.28902 128.591 2.8557 128.16 2.30535 128.09L0 127.798L2.30535 127.506C2.8557 127.436 3.28902 127.006 3.35923 126.459L3.65333 124.169Z" fill="white"/>
<path d="M9.88944 130.058L10.5617 135.292C10.6896 136.288 11.4791 137.073 12.4819 137.2L17.7513 137.868L12.4819 138.535C11.4791 138.662 10.6896 139.447 10.5617 140.443L9.88944 145.677L9.21723 140.443C9.0893 139.447 8.29974 138.662 7.29695 138.535L2.02759 137.868L7.29695 137.2C8.29974 137.073 9.0893 136.288 9.21723 135.292L9.88944 130.058Z" fill="white"/>
<path d="M191.658 0L192.33 5.23417C192.458 6.23026 193.247 7.01455 194.25 7.14162L199.519 7.80934L194.25 8.47706C193.247 8.60413 192.458 9.38842 192.33 10.3845L191.658 15.6187L190.985 10.3845C190.857 9.38842 190.068 8.60413 189.065 8.47706L183.796 7.80934L189.065 7.14162C190.068 7.01455 190.857 6.23026 190.985 5.23417L191.658 0Z" fill="white"/>
<path d="M200.755 19.0856L201.277 23.1534C201.377 23.9276 201.99 24.5371 202.77 24.6359L206.865 25.1548L202.77 25.6737C201.99 25.7725 201.377 26.382 201.277 27.1562L200.755 31.224L200.232 27.1562C200.133 26.382 199.519 25.7725 198.74 25.6737L194.645 25.1548L198.74 24.6359C199.519 24.5371 200.133 23.9276 200.232 23.1534L200.755 19.0856Z" fill="white"/>
<path d="M180.731 19.0856L181.253 23.1534C181.353 23.9276 181.966 24.5371 182.746 24.6359L186.841 25.1548L182.746 25.6737C181.966 25.7725 181.353 26.382 181.253 27.1562L180.731 31.224L180.208 27.1562C180.109 26.382 179.495 25.7725 178.716 25.6737L174.621 25.1548L178.716 24.6359C179.495 24.5371 180.109 23.9276 180.208 23.1534L180.731 19.0856Z" fill="white"/>
<path d="M13.9268 158.938H19.8799L27.6484 167.125V158.938H33.6578V173.738H27.6484L19.9221 165.611V173.738H13.9268V158.938Z" fill="white"/>
<path d="M60.3947 171.294H53.1327L52.1335 173.738H45.6175L53.372 158.938H60.3243L68.0788 173.738H61.4079L60.3947 171.294ZM59.0577 168.094L56.7778 162.774L54.5119 168.094H59.0577Z" fill="white"/>
<path d="M76.7734 158.938H96.1526V162.592H89.6507V173.738H83.2754V162.592H76.7734V158.938Z" fill="white"/>
<path d="M122.566 158.938H128.927V167.761C128.927 168.636 128.735 169.464 128.35 170.245C127.975 171.019 127.379 171.698 126.563 172.284C125.756 172.863 124.907 173.27 124.015 173.505C122.777 173.835 121.29 174 119.554 174C118.55 174 117.452 173.95 116.261 173.849C115.079 173.748 114.089 173.549 113.291 173.253C112.494 172.95 111.762 172.523 111.096 171.971C110.439 171.419 109.989 170.85 109.745 170.265C109.351 169.323 109.154 168.488 109.154 167.761V158.938H115.515V167.973C115.515 168.781 115.825 169.413 116.444 169.871C117.072 170.322 117.94 170.547 119.047 170.547C120.145 170.547 121.004 170.325 121.623 169.881C122.251 169.43 122.566 168.794 122.566 167.973V158.938Z" fill="white"/>
<path d="M143.321 173.738V158.938H153.947C155.917 158.938 157.423 159.059 158.464 159.301C159.506 159.544 160.346 159.995 160.984 160.654C161.622 161.307 161.941 162.104 161.941 163.047C161.941 163.868 161.697 164.578 161.209 165.177C160.721 165.769 160.05 166.25 159.196 166.62C158.652 166.856 157.906 167.051 156.959 167.206C157.719 167.388 158.272 167.569 158.619 167.751C158.854 167.872 159.192 168.131 159.633 168.528C160.083 168.925 160.383 169.232 160.533 169.447L163.615 173.738H156.41L153.004 169.215C152.572 168.629 152.188 168.249 151.85 168.074C151.39 167.845 150.869 167.731 150.288 167.731H149.725V173.738H143.321ZM149.725 164.934H152.413C152.704 164.934 153.267 164.867 154.102 164.733C154.524 164.672 154.866 164.517 155.129 164.268C155.401 164.019 155.537 163.733 155.537 163.41C155.537 162.932 155.326 162.565 154.904 162.31C154.482 162.054 153.689 161.926 152.525 161.926H149.725V164.934Z" fill="white"/>
<path d="M175.744 158.938H192.829V162.098H182.133V164.45H192.055V167.468H182.133V170.386H193.139V173.738H175.744V158.938Z" fill="white"/>
<path d="M206.675 158.938H213.05V170.093H223V173.738H206.675V158.938Z" fill="white"/>
</svg>
